<svg xmlns="http://www.w3.org/2000/svg" viewBox="0 0 219 204">
  <rect width="100%" height="100%" fill="#F24C9E"/>
  <path d="M184.968 113.286C176.578 116.348 170.34 123.182 165.826 130.547C158.239 142.915 155.491 156.779 155.491 156.779V113.286L124.307 144.471C136.088 144.471 145.645 154.022 145.645 165.804C145.645 172.667 142.247 179.235 136.654 183.208C125.459 191.164 108.837 186.216 98.6705 178.792C81.7144 166.414 75.9392 142.6 85.5448 123.832C89.4441 116.205 95.6082 109.815 103.082 105.63V140.675C108.783 123.723 123.268 110.238 141.932 103.823C145.783 102.504 149.815 101.484 153.98 100.795C156.762 100.337 159.578 100.106 162.394 100.106H195.258L213.73 81.6334H190.556L214.808 57.3807C197.926 27.4662 165.845 7.27041 129.048 7.27041C126.803 7.27041 124.577 7.34426 122.372 7.49689C122.372 7.49689 59.8151 -22.654 0.734375 43.8611C1.12332 43.7429 19.7879 38.0219 42.5241 43.8611C42.5241 43.8611 54.4338 27.1806 80.4293 20.0958C50.6871 37.0274 30.6292 69.0147 30.6292 105.684C30.6292 131.552 41.0225 156.74 59.2637 175.084C87.647 203.62 141.381 217.327 171.03 183.119C182.408 169.989 196.641 143.348 218.457 146.878C218.467 146.854 218.481 146.829 218.491 146.799L184.973 113.281L184.968 113.286ZM178.247 40.8086C185.307 40.1045 191.196 45.988 190.497 53.0481C189.98 58.2719 185.76 62.4912 180.537 63.0131C173.477 63.7171 167.588 57.8386 168.287 50.7834C168.799 45.5596 173.024 41.3304 178.247 40.8135V40.8086ZM72.7144 54.535H133.602L128.979 55.4261C102.058 60.6105 80.321 80.4567 72.7144 106.802V54.535Z" fill="white"/>
</svg>