<svg xmlns="http://www.w3.org/2000/svg" width="24" height="24" viewBox="0 0 24 24">
  <circle cx="12" cy="12" r="12" fill="#F24C9E"/>
  <path d="M20.2 12.36c-.92.33-1.6 1.09-2.1 1.9-.83 1.36-1.13 2.9-1.13 2.9v-4.8l-3.42 3.42c1.29 0 2.33 1.05 2.33 2.34 0 .75-.37 1.47-.98 1.91-1.23.87-3.05.33-4.16-.48-1.85-1.36-2.48-3.97-1.43-6.04.43-.84 1.1-1.54 1.92-2v3.85c.62-1.86 2.2-3.34 4.25-4.05.42-.15.86-.26 1.32-.33.3-.05.61-.08.92-.08h3.6l2.02-2.03h-2.54l2.65-2.66c-1.85-3.28-5.36-5.5-9.38-5.5-.25 0-.49.01-.73.03 0 0-6.85-3.32-13.3 4 .04-.01 2.09-.64 4.58-.01 0 0 1.3-1.84 4.15-2.6-3.25 1.86-5.44 5.37-5.44 9.39 0 2.84 1.14 5.61 3.13 7.62 3.1 3.13 9 4.64 12.25.88 1.24-1.44 2.8-4.37 5.19-3.98 0 0-3.67-3.68-3.67-3.68zm-.73-7.96c.77-.08 1.41.57 1.34 1.34-.06.57-.52 1.03-1.09 1.09-.77.08-1.41-.57-1.34-1.34.06-.57.52-1.03 1.09-1.09zm-11.55 1.5h6.66l-.51.1c-2.94.57-5.32 2.75-6.15 5.63v-5.73z" fill="white" transform="scale(0.6) translate(8,8)"/>
</svg>